<svg xmlns="http://www.w3.org/2000/svg" width="401.41" height="745.54" viewBox="0 0 401.41 745.54">
  <defs>
    <style>
      .cls-1 {
        fill: #1b1464;
      }

      .cls-2 {
        fill: #ff0;
      }

      .cls-13, .cls-14, .cls-2, .cls-9 {
        stroke: #000;
        stroke-miterlimit: 10;
      }

      .cls-3 {
        fill: #eabc90;
      }

      .cls-4 {
        fill: #f2b88d;
      }

      .cls-5 {
        fill: #f39768;
      }

      .cls-6 {
        fill: #eea980;
      }

      .cls-7 {
        fill: #662d91;
        opacity: 0.19;
      }

      .cls-8, .cls-9 {
        fill: #fff;
      }

      .cls-10 {
        fill: #fad4b2;
      }

      .cls-11 {
        font-size: 20px;
        font-family: Impact;
      }

      .cls-12 {
        fill: #006837;
      }

      .cls-13 {
        fill: #666;
      }

      .cls-14 {
        fill: gray;
      }

      .cls-15 {
        fill: #999;
      }

      .cls-16 {
        font-size: 30px;
        font-family: MyriadPro-Regular, Myriad Pro;
      }
    </style>
  </defs>
  <g id="edit">
    <polygon id="cuff1" class="cls-1" points="9.28 534.69 0 745.33 220.43 745.33 229.15 544.41 9.28 534.69"/>
    <circle id="button1" class="cls-2" cx="47.56" cy="592.46" r="14.86"/>
    <circle id="button2" class="cls-2" cx="88.56" cy="592.46" r="14.86"/>
    <path id="hand1" class="cls-3" d="M731.81,832.22s12.7-113.47,15.57-128.85c0,0-4.1-66.5,19.66-112.23s19.25-90.61,19.25-90.61-2.52-27.87-8.58-51.14c-2.05-7.86-4.5-15.2-7.4-20.77,0,0-8.6-24.94,18-21.61,0,0,6.56,0,18,14.55l14.74,18.7V766.45s5.94,20,27.36,22.3a290.61,290.61,0,0,0,39.44,1.47s4.18,7.18-7.07,10.77l.32,29.69Z" transform="translate(-686.82 -334.78)"/>
    <path id="shadow1" class="cls-4" d="M782.4,457s8.21,10.31,8.21,13.56c0,0,4.35,13.36,7.95,14,0,0-6.54,7.19-2.29,11.76s4.58,1,4.58,1-7.85,14.05-2.94,16.66,3.6,9.8,3.6,9.8-7.53,63.38-12.44,72.53-22.09,72.44-22.58,116c0,0-22.32,114.36-18.93,119.69h97.57s-6.31-25.19-6.31-28.59S834,789.85,834,789.85s-43.2-22.29-19.91-99.34c0,0,4.37-75.11,1-106.61,0,0-1.46-15,7.28-61,0,0,5.82-72.69-31.07-112.91,0,0-26.7-8.72-2.43,29.56C788.82,439.5,800.74,463.76,782.4,457Z" transform="translate(-686.82 -334.78)"/>
    <path class="cls-5" d="M1066.62,697s-2.25-4.33-6.68-4.49h0a20.27,20.27,0,0,0-3.86-1c-.62.11-.25.57-.25.57l10.79,4.87" transform="translate(-686.82 -334.78)"/>
    <path id="shadow2" class="cls-6" d="M882.37,831.24l-38.7,0S838.05,795,833,791s-33.56-22.54-26.64-58,11.93-106.81,9.63-125.7,2.3-68.64,4.61-70.18,20.79,254.49,20.79,254.49l47.86-.88s-1.3,13.22-9.38,10.52C879.84,801.22,886.43,825.4,882.37,831.24Z" transform="translate(-686.82 -334.78)"/>
    <path class="cls-6" d="M843.45,830s-34.24-36.21-31.92-46.72L811.47,768s-7.89-17.78-6.07-26.5,6.23-42,6.23-42,12.23,80.17,21.38,80.5,56.18,4.75,56.18,4.75,1.11,14.37-4.71,16.23c0,0-2.63,1.11-3.63.71v3.52s2.79,15.56,2.66,17.66.92,8.13-1.18,9.05Z" transform="translate(-686.82 -334.78)"/>
    <path class="cls-6" d="M811.7,700.9s-17.14,78.25,2.28,92h0s23.51,37,28.86,37.23,39.49,1.76,39.49,1.76,3.08-8.53-1.19-25.1h0l-.31-5.77s7.21,3.75,8.39-10.29h0l-64.73-31Z" transform="translate(-686.82 -334.78)"/>
    <polygon class="cls-7" points="124.54 539.77 110.04 745.54 220.43 745.54 229.15 544.41 124.54 539.77"/>
    <polygon id="cuff2" class="cls-8" points="24.51 535.11 26.6 489.35 217.46 498.08 215.38 543.6 24.51 535.11"/>
    <rect id="body1" x="124.75" width="239.3" height="456.55" rx="7.2"/>
    <rect id="body2" class="cls-9" x="138.23" y="27.05" width="211.11" height="385.19"/>
    <path id="nail1" class="cls-10" d="M789.57,450.39c.9-.54-6.55,12.93-12.18-1s-13.18-40.37-3.65-34.61S789.57,450.39,789.57,450.39Z" transform="translate(-686.82 -334.78)"/>
    <path id="finger1" class="cls-3" d="M1050.94,503.89s34.11-6.61,35.18,26.44-15.78,29.85-27.72,27.72c0,0-23.48-12.44-7.44-41.09Z" transform="translate(-686.82 -334.78)"/>
    <path id="nail2" class="cls-10" d="M1078.35,510.48s-4.17,33.1,3.08,43.33C1081.43,553.81,1094.6,528,1078.35,510.48Z" transform="translate(-686.82 -334.78)"/>
    <path id="finger2" class="cls-3" d="M1050.89,561.25s28.91,3.81,35.94,26.9l1.4,26.3s-1,4.82-9.23,9.63-30.12,26.5-30.12,26.5-15.05,10.85-28.5-8-.21-34.53-.21-34.53,16.67-25.89,30.92-31.92Z" transform="translate(-686.82 -334.78)"/>
    <path id="nail3" class="cls-10" d="M1055.7,612s-4-5.42-11.44-.6-16.26,13-11,21.28,8.63,15.66,20.28,7.83,14.85-11.65,10.84-18.27A40.92,40.92,0,0,0,1055.7,612Z" transform="translate(-686.82 -334.78)"/>
    <path id="finger3" class="cls-3" d="M1065.92,633.91s-.94,5.32,6.56,10.32,5.31,28.43,5.31,28.43-25.31,25.31-56.87,30.63c0,0-38.75-10.32-17.5-38.44,0,0,11.25-13.44,23.12-16.25,0,0,13.16,8.13,22.34,1Z" transform="translate(-686.82 -334.78)"/>
    <path id="nail4" class="cls-10" d="M1043.5,671.32s-.29-13.14-13.72-7.14-18.57,10.57-14.57,19.71,8.29,15.71,15.43,11.71,17.31-7.19,16.81-11.49S1043.5,671.32,1043.5,671.32Z" transform="translate(-686.82 -334.78)"/>
    <path id="finger4" class="cls-3" d="M1027.19,701.83s-8.06,7.11-7.54,16.43,13.5,17.37,22.71,12.77,28.26-14.76,28-19.26-1.68-19.15-10.37-19.26a13.62,13.62,0,0,0-5.23-1C1052.1,691.57,1032.52,701.51,1027.19,701.83Z" transform="translate(-686.82 -334.78)"/>
    <path id="nail5" class="cls-10" d="M1048.44,715.23s3.88,9.21-3,11.83-10.47,6-13.71-.52-6.18-11.72-.32-14,11.93-5.44,14.34-1.67S1048.44,715.23,1048.44,715.23Z" transform="translate(-686.82 -334.78)"/>
    <text class="cls-11" transform="translate(184.43 225.91)">INCOMING CALL</text>
    <g id="GCALL">
      <circle class="cls-12" cx="246.05" cy="324.31" r="30.86"/>
      <path class="cls-8" d="M922.2,635.07l9.3,11.29s-6.11,3.85-4.25,10,9.17,13.55,15.81,9.7l8.77,10.49s-9.57,7.71-15.28,1.6-17.84-22.4-19-25.12-3.06-8.1-.53-12.09A21.73,21.73,0,0,1,922.2,635.07Z" transform="translate(-686.82 -334.78)"/>
    </g>
    <path id="shadow2-2" data-name="shadow2" class="cls-6" d="M1077.28,577.62s-27.22-.56-44.24,23.41-12.47,41.8-12.47,41.8-12.48-15.05-6.24-28.43,27.79-36.23,35.73-37.34l1.13-15S1067.07,565.91,1077.28,577.62Z" transform="translate(-686.82 -334.78)"/>
    <path id="shadow3" class="cls-6" d="M1073.53,647s-75.63,10.16-75.07,36.68c0,0-6.77-20.32,27.66-32.17,0,0,33.2-2.8,37.79-5.93Z" transform="translate(-686.82 -334.78)"/>
    <path id="shadow4" class="cls-6" d="M1066.62,697s-47.5,3-46.44,23.63c0,0-3.54-12.15,6.74-16.2s24.15-8.06,28.91-12.3Z" transform="translate(-686.82 -334.78)"/>
    <path id="shadow5" class="cls-6" d="M1055.47,692s0-.59.27-.65a37.14,37.14,0,0,1,4,1.1c4.69-.39,7.37,5.15,7.37,5.15" transform="translate(-686.82 -334.78)"/>
    <path id="shadow6" class="cls-6" d="M1023.05,708.09s2.86-4.41,4-5.2,13.33-3.21,20.42-8.4c0,0,8.06-4,8.94-2.92a34.68,34.68,0,0,1-5.76,4.71C1048.38,697.5,1023.05,708.09,1023.05,708.09Z" transform="translate(-686.82 -334.78)"/>
    <path id="shadow7" class="cls-6" d="M1080.25,576.55l-3,1.07s-15.64-12.91-26.49-15.52l.1-.85s12.27,2.62,17.54,5.85S1079.84,574.88,1080.25,576.55Z" transform="translate(-686.82 -334.78)"/>
    <path id="shadow8" class="cls-6" d="M1051,503.89s6.4,18.37,1.77,29.73,6,24.43,6,24.43-13.53-7.74-13.43-19.68,4-18.63,4-18.63Z" transform="translate(-686.82 -334.78)"/>
    <path id="shadow8-2" data-name="shadow8" class="cls-6" d="M1003.42,664.85s12.27-14.43,23.12-16.25,11.09,2.27,34-4.63l5.14,2.11s-19.4,5.14-23.26,5.26S1003.42,664.85,1003.42,664.85Z" transform="translate(-686.82 -334.78)"/>
    <circle id="button" class="cls-13" cx="245.26" cy="435.26" r="15.64"/>
    <circle id="circle1" class="cls-13" cx="331.9" cy="16.56" r="5.52"/>
    <circle id="circle2" class="cls-13" cx="318.9" cy="16.56" r="5.52"/>
    <rect id="eclipse" class="cls-14" x="225.74" y="12.45" width="34.86" height="5.72" rx="2.86"/>
    <g id="HOODIEGUY">
      <path id="hoodie" d="M891.25,496s39.72,12.7,79.91,0c0,0-2.09-30.55-24.44-41,0,0-19.29,5.63-30.71,0C916,455,895.6,464.45,891.25,496Z" transform="translate(-686.82 -334.78)"/>
      <path id="hoodie2" d="M902.71,445.7s4.3,11.72,28.63,12.72c0,0,23,.34,29.12-13.94,0,0-2.16-14.75-29.82-14.24S902.71,445.7,902.71,445.7Z" transform="translate(-686.82 -334.78)"/>
      <path id="face" class="cls-15" d="M911.2,434.3s.26,23.52,20.18,23.79c0,0,18.58,1.2,20.32-23.79S906.79,418.92,911.2,434.3Z" transform="translate(-686.82 -334.78)"/>
      <path id="hat" d="M960.42,444.14s-3.63-13.76-29.55-13.35c0,0-24.49-1-28,14.49a17.51,17.51,0,0,1,2.25-8.37c2.39-4.27,18.82-27.63,18.82-27.63s6.86-11.22,15.11-.29S962.34,438.77,960.42,444.14Z" transform="translate(-686.82 -334.78)"/>
      <text class="cls-16" transform="translate(238.8 119.73)">?</text>
    </g>
  </g>
</svg>
